# xmcd
#
# Track frame offsets:
#	150
#	11799
#	23238
#	35817
#	51003
#	63713
#	88796
#	113808
#	125544
#	140631
#	154243
#	170098
#	183720
#	197271
#	207221
#	219187
#	232357
#	244766
#
# Disc length: 3440 seconds
#
# Revision: 0
# Processed by: cddbd v1.5.1PL2 Copyright (c) Steve Scherf et al.
# Submitted via: MusicManager 7.3.0.0 
#
DISCID=100d6e12
DTITLE=Louis Jordan - Let The Good Times Roll - 1938-1953 #2
DYEAR=1900
DGENRE=blues
TTITLE0=Jack, You're Dead
TTITLE1=Open The Door, Richard
TTITLE2=Boogie Woogie Blue Plate
TTITLE3=Run Joe
TTITLE4=Beans And Cornbread
TTITLE5=Saturday Night Fish Fry
TTITLE6=Blue Light Boogie
TTITLE7=(You Died Your Hair) Chartreuse
TTITLE8=Life Is So Peculiar
TTITLE9=Teardrops From My Eyes
TTITLE10=Louisville Lodge Meeting
TTITLE11=Bone Dry
TTITLE12=Fat Sam From Birmingham
TTITLE13=Cock-a-Doodle Doo
TTITLE14=Slow Down
TTITLE15=Never Trust A Woman
TTITLE16=Junco Partner
TTITLE17=I Want You To Be My Baby
EXTD=
EXTT0=
EXTT1=
EXTT2=
EXTT3=
EXTT4=
EXTT5=
EXTT6=
EXTT7=
EXTT8=
EXTT9=
EXTT10=
EXTT11=
EXTT12=
EXTT13=
EXTT14=
EXTT15=
EXTT16=
EXTT17=
PLAYORDER=
